<mxfile host="app.diagrams.net" modified="2021-08-04T15:25:59.000Z" agent="5.0 (Macintosh; Intel Mac OS X 10_15_6) AppleWebKit/537.36 (KHTML, like Gecko) Chrome/92.0.4515.107 Safari/537.36 Edg/92.0.902.62" etag="S7SuU90S-iS4oXK1QzCL" version="14.9.3" type="github">
  <diagram id="jKP7sBDpfqMwmEzG3EQ9" name="第 1 页">
    <mxGraphModel dx="948" dy="644" grid="1" gridSize="10" guides="1" tooltips="1" connect="1" arrows="1" fold="1" page="1" pageScale="1" pageWidth="4681" pageHeight="3300" math="0" shadow="0">
      <root>
        <mxCell id="0" />
        <mxCell id="1" parent="0" />
        <mxCell id="0bQcgtlpd2lwGw6iiIkm-161" style="edgeStyle=orthogonalEdgeStyle;curved=1;orthogonalLoop=1;jettySize=auto;html=1;strokeColor=#9673a6;entryX=1;entryY=0.5;entryDx=0;entryDy=0;fillColor=#e1d5e7;" edge="1" parent="1" source="0bQcgtlpd2lwGw6iiIkm-155" target="0bQcgtlpd2lwGw6iiIkm-162">
          <mxGeometry relative="1" as="geometry">
            <mxPoint x="1150" y="840" as="targetPoint" />
          </mxGeometry>
        </mxCell>
        <mxCell id="0bQcgtlpd2lwGw6iiIkm-5" value="" style="edgeStyle=orthogonalEdgeStyle;rounded=0;orthogonalLoop=1;jettySize=auto;html=1;" edge="1" parent="1" source="0bQcgtlpd2lwGw6iiIkm-2" target="0bQcgtlpd2lwGw6iiIkm-4">
          <mxGeometry relative="1" as="geometry" />
        </mxCell>
        <mxCell id="0bQcgtlpd2lwGw6iiIkm-2" value="入口" style="rounded=1;whiteSpace=wrap;html=1;arcSize=50;fillColor=#f5f5f5;strokeColor=#666666;fontColor=#333333;" vertex="1" parent="1">
          <mxGeometry x="560" y="400" width="120" height="60" as="geometry" />
        </mxCell>
        <mxCell id="0bQcgtlpd2lwGw6iiIkm-8" value="" style="edgeStyle=orthogonalEdgeStyle;rounded=0;orthogonalLoop=1;jettySize=auto;html=1;" edge="1" parent="1" source="0bQcgtlpd2lwGw6iiIkm-4" target="0bQcgtlpd2lwGw6iiIkm-7">
          <mxGeometry relative="1" as="geometry" />
        </mxCell>
        <mxCell id="0bQcgtlpd2lwGw6iiIkm-4" value="rollup()" style="rounded=1;whiteSpace=wrap;html=1;arcSize=0;align=center;" vertex="1" parent="1">
          <mxGeometry x="560" y="520" width="120" height="60" as="geometry" />
        </mxCell>
        <mxCell id="0bQcgtlpd2lwGw6iiIkm-16" value="" style="edgeStyle=orthogonalEdgeStyle;rounded=0;orthogonalLoop=1;jettySize=auto;html=1;" edge="1" parent="1" source="0bQcgtlpd2lwGw6iiIkm-7" target="0bQcgtlpd2lwGw6iiIkm-15">
          <mxGeometry relative="1" as="geometry" />
        </mxCell>
        <mxCell id="0bQcgtlpd2lwGw6iiIkm-7" value="bunlde = &lt;br&gt;new Bundle()" style="rounded=1;whiteSpace=wrap;html=1;arcSize=0;align=center;" vertex="1" parent="1">
          <mxGeometry x="560" y="640" width="120" height="60" as="geometry" />
        </mxCell>
        <mxCell id="0bQcgtlpd2lwGw6iiIkm-9" value="" style="endArrow=none;html=1;strokeColor=#CCCCCC;" edge="1" parent="1">
          <mxGeometry width="50" height="50" relative="1" as="geometry">
            <mxPoint x="520" y="800" as="sourcePoint" />
            <mxPoint x="520" y="360" as="targetPoint" />
          </mxGeometry>
        </mxCell>
        <mxCell id="0bQcgtlpd2lwGw6iiIkm-10" value="" style="endArrow=none;html=1;fillColor=#f5f5f5;strokeColor=#CCCCCC;" edge="1" parent="1">
          <mxGeometry width="50" height="50" relative="1" as="geometry">
            <mxPoint x="720" y="800" as="sourcePoint" />
            <mxPoint x="720" y="360" as="targetPoint" />
          </mxGeometry>
        </mxCell>
        <mxCell id="0bQcgtlpd2lwGw6iiIkm-11" value="rollup.js" style="text;html=1;strokeColor=none;fillColor=none;align=left;verticalAlign=middle;whiteSpace=wrap;rounded=0;" vertex="1" parent="1">
          <mxGeometry x="560" y="360" width="40" height="20" as="geometry" />
        </mxCell>
        <mxCell id="0bQcgtlpd2lwGw6iiIkm-13" value="bundle.js&amp;nbsp; - rollup 实例" style="text;html=1;strokeColor=none;fillColor=none;align=left;verticalAlign=middle;whiteSpace=wrap;rounded=0;" vertex="1" parent="1">
          <mxGeometry x="760" y="360" width="130" height="20" as="geometry" />
        </mxCell>
        <mxCell id="0bQcgtlpd2lwGw6iiIkm-18" style="edgeStyle=orthogonalEdgeStyle;orthogonalLoop=1;jettySize=auto;html=1;entryX=0;entryY=0.5;entryDx=0;entryDy=0;curved=1;fillColor=#e1d5e7;strokeColor=#9673a6;" edge="1" parent="1" source="0bQcgtlpd2lwGw6iiIkm-15" target="0bQcgtlpd2lwGw6iiIkm-17">
          <mxGeometry relative="1" as="geometry" />
        </mxCell>
        <mxCell id="0bQcgtlpd2lwGw6iiIkm-15" value="bunlde.build()" style="rounded=1;whiteSpace=wrap;html=1;arcSize=0;align=center;" vertex="1" parent="1">
          <mxGeometry x="560" y="760" width="120" height="60" as="geometry" />
        </mxCell>
        <mxCell id="0bQcgtlpd2lwGw6iiIkm-17" value="fetchModule()&lt;br&gt;获取 module 路径" style="rounded=1;whiteSpace=wrap;html=1;arcSize=0;align=center;" vertex="1" parent="1">
          <mxGeometry x="760" y="400" width="120" height="60" as="geometry" />
        </mxCell>
        <mxCell id="0bQcgtlpd2lwGw6iiIkm-22" value="" style="edgeStyle=orthogonalEdgeStyle;curved=1;orthogonalLoop=1;jettySize=auto;html=1;strokeColor=#000000;exitX=0.5;exitY=1;exitDx=0;exitDy=0;" edge="1" parent="1" source="0bQcgtlpd2lwGw6iiIkm-17" target="0bQcgtlpd2lwGw6iiIkm-21">
          <mxGeometry relative="1" as="geometry">
            <mxPoint x="820" y="580" as="sourcePoint" />
          </mxGeometry>
        </mxCell>
        <mxCell id="0bQcgtlpd2lwGw6iiIkm-24" value="" style="edgeStyle=orthogonalEdgeStyle;curved=1;orthogonalLoop=1;jettySize=auto;html=1;strokeColor=#000000;" edge="1" parent="1" source="0bQcgtlpd2lwGw6iiIkm-21">
          <mxGeometry relative="1" as="geometry">
            <mxPoint x="820" y="640" as="targetPoint" />
          </mxGeometry>
        </mxCell>
        <mxCell id="0bQcgtlpd2lwGw6iiIkm-25" value="是" style="edgeLabel;html=1;align=center;verticalAlign=middle;resizable=0;points=[];" vertex="1" connectable="0" parent="0bQcgtlpd2lwGw6iiIkm-24">
          <mxGeometry x="-0.5333" y="1" relative="1" as="geometry">
            <mxPoint as="offset" />
          </mxGeometry>
        </mxCell>
        <mxCell id="0bQcgtlpd2lwGw6iiIkm-27" value="否" style="edgeStyle=orthogonalEdgeStyle;curved=1;orthogonalLoop=1;jettySize=auto;html=1;strokeColor=#000000;" edge="1" parent="1" source="0bQcgtlpd2lwGw6iiIkm-21" target="0bQcgtlpd2lwGw6iiIkm-26">
          <mxGeometry x="0.25" y="-10" relative="1" as="geometry">
            <mxPoint as="offset" />
          </mxGeometry>
        </mxCell>
        <mxCell id="0bQcgtlpd2lwGw6iiIkm-21" value="是否内部模块" style="rhombus;whiteSpace=wrap;html=1;rounded=1;arcSize=0;fillColor=#ffe6cc;strokeColor=#d79b00;" vertex="1" parent="1">
          <mxGeometry x="760" y="520" width="120" height="60" as="geometry" />
        </mxCell>
        <mxCell id="0bQcgtlpd2lwGw6iiIkm-37" style="edgeStyle=orthogonalEdgeStyle;curved=1;orthogonalLoop=1;jettySize=auto;html=1;entryX=0;entryY=0.5;entryDx=0;entryDy=0;strokeColor=#9673a6;fillColor=#e1d5e7;" edge="1" parent="1" source="0bQcgtlpd2lwGw6iiIkm-23" target="0bQcgtlpd2lwGw6iiIkm-31">
          <mxGeometry relative="1" as="geometry" />
        </mxCell>
        <mxCell id="0bQcgtlpd2lwGw6iiIkm-23" value="new Module()" style="whiteSpace=wrap;html=1;rounded=1;arcSize=0;" vertex="1" parent="1">
          <mxGeometry x="760" y="760" width="120" height="60" as="geometry" />
        </mxCell>
        <mxCell id="0bQcgtlpd2lwGw6iiIkm-26" value="new ExternalModule()" style="whiteSpace=wrap;html=1;rounded=1;arcSize=0;" vertex="1" parent="1">
          <mxGeometry x="900" y="640" width="120" height="60" as="geometry" />
        </mxCell>
        <mxCell id="0bQcgtlpd2lwGw6iiIkm-29" value="" style="edgeStyle=orthogonalEdgeStyle;curved=1;orthogonalLoop=1;jettySize=auto;html=1;strokeColor=#000000;" edge="1" parent="1" source="0bQcgtlpd2lwGw6iiIkm-28" target="0bQcgtlpd2lwGw6iiIkm-23">
          <mxGeometry relative="1" as="geometry" />
        </mxCell>
        <mxCell id="0bQcgtlpd2lwGw6iiIkm-28" value="fs.readFile()&lt;br&gt;拿到源码" style="whiteSpace=wrap;html=1;rounded=1;arcSize=0;" vertex="1" parent="1">
          <mxGeometry x="760" y="640" width="120" height="60" as="geometry" />
        </mxCell>
        <mxCell id="0bQcgtlpd2lwGw6iiIkm-30" value="" style="endArrow=none;html=1;fillColor=#f5f5f5;strokeColor=#CCCCCC;" edge="1" parent="1">
          <mxGeometry width="50" height="50" relative="1" as="geometry">
            <mxPoint x="1040" y="800" as="sourcePoint" />
            <mxPoint x="1040" y="360" as="targetPoint" />
          </mxGeometry>
        </mxCell>
        <mxCell id="0bQcgtlpd2lwGw6iiIkm-36" value="" style="edgeStyle=orthogonalEdgeStyle;curved=1;orthogonalLoop=1;jettySize=auto;html=1;strokeColor=#000000;" edge="1" parent="1" source="0bQcgtlpd2lwGw6iiIkm-31" target="0bQcgtlpd2lwGw6iiIkm-35">
          <mxGeometry relative="1" as="geometry" />
        </mxCell>
        <mxCell id="0bQcgtlpd2lwGw6iiIkm-31" value="this.analyse(ast)&lt;br&gt;分析源码" style="whiteSpace=wrap;html=1;rounded=1;arcSize=0;" vertex="1" parent="1">
          <mxGeometry x="1080" y="400" width="120" height="60" as="geometry" />
        </mxCell>
        <mxCell id="0bQcgtlpd2lwGw6iiIkm-32" value="module.js - 文件" style="text;html=1;strokeColor=none;fillColor=none;align=left;verticalAlign=middle;whiteSpace=wrap;rounded=0;" vertex="1" parent="1">
          <mxGeometry x="1080" y="360" width="130" height="20" as="geometry" />
        </mxCell>
        <mxCell id="0bQcgtlpd2lwGw6iiIkm-33" style="edgeStyle=orthogonalEdgeStyle;curved=1;orthogonalLoop=1;jettySize=auto;html=1;exitX=0.5;exitY=1;exitDx=0;exitDy=0;strokeColor=#000000;" edge="1" parent="1" source="0bQcgtlpd2lwGw6iiIkm-13" target="0bQcgtlpd2lwGw6iiIkm-13">
          <mxGeometry relative="1" as="geometry" />
        </mxCell>
        <mxCell id="0bQcgtlpd2lwGw6iiIkm-39" value="" style="edgeStyle=orthogonalEdgeStyle;curved=1;orthogonalLoop=1;jettySize=auto;html=1;strokeColor=#000000;" edge="1" parent="1" source="0bQcgtlpd2lwGw6iiIkm-35" target="0bQcgtlpd2lwGw6iiIkm-38">
          <mxGeometry relative="1" as="geometry" />
        </mxCell>
        <mxCell id="0bQcgtlpd2lwGw6iiIkm-35" value="&lt;div&gt;this.imports = {}&lt;/div&gt;&lt;div&gt;&lt;span&gt;		&lt;/span&gt;this.exports = {}&lt;/div&gt;&lt;div&gt;this.ast.body.forEach()&lt;br&gt;&lt;/div&gt;&lt;div&gt;处理导入、导出模块&lt;/div&gt;" style="whiteSpace=wrap;html=1;rounded=1;arcSize=0;" vertex="1" parent="1">
          <mxGeometry x="1070" y="520" width="140" height="60" as="geometry" />
        </mxCell>
        <mxCell id="0bQcgtlpd2lwGw6iiIkm-44" style="edgeStyle=orthogonalEdgeStyle;curved=1;orthogonalLoop=1;jettySize=auto;html=1;entryX=0;entryY=0.5;entryDx=0;entryDy=0;strokeColor=#9673a6;fillColor=#e1d5e7;" edge="1" parent="1" source="0bQcgtlpd2lwGw6iiIkm-38" target="0bQcgtlpd2lwGw6iiIkm-43">
          <mxGeometry relative="1" as="geometry" />
        </mxCell>
        <mxCell id="0bQcgtlpd2lwGw6iiIkm-38" value="&lt;span&gt;analyse(ast)&lt;/span&gt;&lt;br&gt;进一步分析" style="whiteSpace=wrap;html=1;rounded=1;arcSize=0;" vertex="1" parent="1">
          <mxGeometry x="1080" y="640" width="120" height="60" as="geometry" />
        </mxCell>
        <mxCell id="0bQcgtlpd2lwGw6iiIkm-40" value="" style="endArrow=none;html=1;fillColor=#f5f5f5;strokeColor=#CCCCCC;" edge="1" parent="1">
          <mxGeometry width="50" height="50" relative="1" as="geometry">
            <mxPoint x="1240" y="800" as="sourcePoint" />
            <mxPoint x="1240" y="360" as="targetPoint" />
          </mxGeometry>
        </mxCell>
        <mxCell id="0bQcgtlpd2lwGw6iiIkm-41" value="ast/analyse.js - 分析 ast" style="text;html=1;strokeColor=none;fillColor=none;align=left;verticalAlign=middle;whiteSpace=wrap;rounded=0;" vertex="1" parent="1">
          <mxGeometry x="1280" y="360" width="140" height="20" as="geometry" />
        </mxCell>
        <mxCell id="0bQcgtlpd2lwGw6iiIkm-49" value="" style="edgeStyle=orthogonalEdgeStyle;curved=1;orthogonalLoop=1;jettySize=auto;html=1;strokeColor=#000000;" edge="1" parent="1" source="0bQcgtlpd2lwGw6iiIkm-43" target="0bQcgtlpd2lwGw6iiIkm-48">
          <mxGeometry relative="1" as="geometry" />
        </mxCell>
        <mxCell id="0bQcgtlpd2lwGw6iiIkm-43" value="new Scope()" style="whiteSpace=wrap;html=1;rounded=1;arcSize=0;" vertex="1" parent="1">
          <mxGeometry x="1280" y="400" width="120" height="60" as="geometry" />
        </mxCell>
        <mxCell id="0bQcgtlpd2lwGw6iiIkm-45" value="" style="endArrow=none;html=1;fillColor=#f5f5f5;strokeColor=#CCCCCC;" edge="1" parent="1">
          <mxGeometry width="50" height="50" relative="1" as="geometry">
            <mxPoint x="1420" y="800" as="sourcePoint" />
            <mxPoint x="1420" y="360" as="targetPoint" />
          </mxGeometry>
        </mxCell>
        <mxCell id="0bQcgtlpd2lwGw6iiIkm-46" value="ast/walk.js - 构建作用域链" style="text;html=1;strokeColor=none;fillColor=none;align=left;verticalAlign=middle;whiteSpace=wrap;rounded=0;" vertex="1" parent="1">
          <mxGeometry x="1480" y="360" width="150" height="20" as="geometry" />
        </mxCell>
        <mxCell id="0bQcgtlpd2lwGw6iiIkm-74" value="" style="edgeStyle=orthogonalEdgeStyle;curved=1;orthogonalLoop=1;jettySize=auto;html=1;strokeColor=#000000;" edge="1" parent="1" source="0bQcgtlpd2lwGw6iiIkm-47" target="0bQcgtlpd2lwGw6iiIkm-56">
          <mxGeometry relative="1" as="geometry" />
        </mxCell>
        <mxCell id="0bQcgtlpd2lwGw6iiIkm-47" value="visit" style="whiteSpace=wrap;html=1;rounded=1;arcSize=0;fillColor=#d5e8d4;strokeColor=#82b366;" vertex="1" parent="1">
          <mxGeometry x="1480" y="520" width="120" height="60" as="geometry" />
        </mxCell>
        <mxCell id="0bQcgtlpd2lwGw6iiIkm-54" value="" style="edgeStyle=orthogonalEdgeStyle;curved=1;orthogonalLoop=1;jettySize=auto;html=1;strokeColor=#9673a6;entryX=0;entryY=0.5;entryDx=0;entryDy=0;fillColor=#e1d5e7;" edge="1" parent="1" source="0bQcgtlpd2lwGw6iiIkm-48" target="0bQcgtlpd2lwGw6iiIkm-53">
          <mxGeometry relative="1" as="geometry" />
        </mxCell>
        <mxCell id="0bQcgtlpd2lwGw6iiIkm-48" value="ast.body.forEach()&lt;br&gt;为每个语句定义作用域并将父子作用域关联起来" style="whiteSpace=wrap;html=1;rounded=1;arcSize=0;" vertex="1" parent="1">
          <mxGeometry x="1280" y="520" width="120" height="60" as="geometry" />
        </mxCell>
        <mxCell id="0bQcgtlpd2lwGw6iiIkm-135" value="" style="edgeStyle=orthogonalEdgeStyle;curved=1;orthogonalLoop=1;jettySize=auto;html=1;strokeColor=#0F0F0F;" edge="1" parent="1" source="0bQcgtlpd2lwGw6iiIkm-53" target="0bQcgtlpd2lwGw6iiIkm-47">
          <mxGeometry relative="1" as="geometry" />
        </mxCell>
        <mxCell id="0bQcgtlpd2lwGw6iiIkm-53" value="walk(Statement)&lt;br&gt;深度遍历" style="whiteSpace=wrap;html=1;rounded=1;arcSize=0;" vertex="1" parent="1">
          <mxGeometry x="1480" y="400" width="120" height="60" as="geometry" />
        </mxCell>
        <mxCell id="0bQcgtlpd2lwGw6iiIkm-59" value="" style="edgeStyle=orthogonalEdgeStyle;curved=1;orthogonalLoop=1;jettySize=auto;html=1;strokeColor=#000000;entryX=0.5;entryY=0;entryDx=0;entryDy=0;" edge="1" parent="1" source="0bQcgtlpd2lwGw6iiIkm-56" target="0bQcgtlpd2lwGw6iiIkm-102">
          <mxGeometry relative="1" as="geometry">
            <mxPoint x="1540" y="760" as="targetPoint" />
          </mxGeometry>
        </mxCell>
        <mxCell id="0bQcgtlpd2lwGw6iiIkm-56" value="enter()" style="whiteSpace=wrap;html=1;rounded=1;arcSize=0;" vertex="1" parent="1">
          <mxGeometry x="1480" y="640" width="120" height="60" as="geometry" />
        </mxCell>
        <mxCell id="0bQcgtlpd2lwGw6iiIkm-66" value="" style="endArrow=none;html=1;fillColor=#f5f5f5;strokeColor=#CCCCCC;" edge="1" parent="1">
          <mxGeometry width="50" height="50" relative="1" as="geometry">
            <mxPoint x="1840" y="800" as="sourcePoint" />
            <mxPoint x="1840" y="360" as="targetPoint" />
          </mxGeometry>
        </mxCell>
        <mxCell id="0bQcgtlpd2lwGw6iiIkm-68" value="ast/scope.js" style="text;html=1;strokeColor=none;fillColor=none;align=left;verticalAlign=middle;whiteSpace=wrap;rounded=0;" vertex="1" parent="1">
          <mxGeometry x="1880" y="360" width="150" height="20" as="geometry" />
        </mxCell>
        <mxCell id="0bQcgtlpd2lwGw6iiIkm-110" value="" style="edgeStyle=orthogonalEdgeStyle;curved=1;orthogonalLoop=1;jettySize=auto;html=1;strokeColor=#0F0F0F;" edge="1" parent="1" source="0bQcgtlpd2lwGw6iiIkm-102" target="0bQcgtlpd2lwGw6iiIkm-107">
          <mxGeometry relative="1" as="geometry" />
        </mxCell>
        <mxCell id="0bQcgtlpd2lwGw6iiIkm-112" value="是" style="edgeLabel;html=1;align=center;verticalAlign=middle;resizable=0;points=[];" vertex="1" connectable="0" parent="0bQcgtlpd2lwGw6iiIkm-110">
          <mxGeometry x="-0.0333" y="-3" relative="1" as="geometry">
            <mxPoint as="offset" />
          </mxGeometry>
        </mxCell>
        <mxCell id="0bQcgtlpd2lwGw6iiIkm-138" style="edgeStyle=orthogonalEdgeStyle;curved=1;orthogonalLoop=1;jettySize=auto;html=1;entryX=0;entryY=0.5;entryDx=0;entryDy=0;strokeColor=#0F0F0F;exitX=0;exitY=0.5;exitDx=0;exitDy=0;" edge="1" parent="1" source="0bQcgtlpd2lwGw6iiIkm-102" target="0bQcgtlpd2lwGw6iiIkm-108">
          <mxGeometry relative="1" as="geometry" />
        </mxCell>
        <mxCell id="0bQcgtlpd2lwGw6iiIkm-102" value="statement 为&lt;br&gt;声明标识符" style="rhombus;whiteSpace=wrap;html=1;rounded=1;arcSize=0;fillColor=#ffe6cc;strokeColor=#d79b00;" vertex="1" parent="1">
          <mxGeometry x="1480" y="760" width="120" height="60" as="geometry" />
        </mxCell>
        <mxCell id="0bQcgtlpd2lwGw6iiIkm-111" value="" style="edgeStyle=orthogonalEdgeStyle;curved=1;orthogonalLoop=1;jettySize=auto;html=1;strokeColor=#0F0F0F;" edge="1" parent="1" source="0bQcgtlpd2lwGw6iiIkm-107" target="0bQcgtlpd2lwGw6iiIkm-108">
          <mxGeometry relative="1" as="geometry" />
        </mxCell>
        <mxCell id="0bQcgtlpd2lwGw6iiIkm-107" value="statement._defines&lt;br&gt;记录标识符" style="whiteSpace=wrap;html=1;rounded=1;arcSize=0;" vertex="1" parent="1">
          <mxGeometry x="1480" y="880" width="120" height="60" as="geometry" />
        </mxCell>
        <mxCell id="0bQcgtlpd2lwGw6iiIkm-115" value="" style="edgeStyle=orthogonalEdgeStyle;curved=1;orthogonalLoop=1;jettySize=auto;html=1;strokeColor=#0F0F0F;" edge="1" parent="1" source="0bQcgtlpd2lwGw6iiIkm-108" target="0bQcgtlpd2lwGw6iiIkm-114">
          <mxGeometry relative="1" as="geometry" />
        </mxCell>
        <mxCell id="0bQcgtlpd2lwGw6iiIkm-123" value="是" style="edgeLabel;html=1;align=center;verticalAlign=middle;resizable=0;points=[];" vertex="1" connectable="0" parent="0bQcgtlpd2lwGw6iiIkm-115">
          <mxGeometry x="-0.3333" y="2" relative="1" as="geometry">
            <mxPoint as="offset" />
          </mxGeometry>
        </mxCell>
        <mxCell id="0bQcgtlpd2lwGw6iiIkm-139" style="edgeStyle=orthogonalEdgeStyle;curved=1;orthogonalLoop=1;jettySize=auto;html=1;entryX=0;entryY=0.5;entryDx=0;entryDy=0;strokeColor=#0F0F0F;exitX=0;exitY=0.5;exitDx=0;exitDy=0;" edge="1" parent="1" source="0bQcgtlpd2lwGw6iiIkm-108" target="0bQcgtlpd2lwGw6iiIkm-117">
          <mxGeometry relative="1" as="geometry" />
        </mxCell>
        <mxCell id="0bQcgtlpd2lwGw6iiIkm-108" value="statement&lt;br&gt;产生了新作用域" style="rhombus;whiteSpace=wrap;html=1;rounded=1;arcSize=0;fillColor=#ffe6cc;strokeColor=#d79b00;" vertex="1" parent="1">
          <mxGeometry x="1480" y="1000" width="120" height="60" as="geometry" />
        </mxCell>
        <mxCell id="0bQcgtlpd2lwGw6iiIkm-118" value="" style="edgeStyle=orthogonalEdgeStyle;curved=1;orthogonalLoop=1;jettySize=auto;html=1;strokeColor=#0F0F0F;" edge="1" parent="1" source="0bQcgtlpd2lwGw6iiIkm-114" target="0bQcgtlpd2lwGw6iiIkm-117">
          <mxGeometry relative="1" as="geometry" />
        </mxCell>
        <mxCell id="0bQcgtlpd2lwGw6iiIkm-114" value="设置 new Scope()" style="whiteSpace=wrap;html=1;rounded=1;arcSize=0;" vertex="1" parent="1">
          <mxGeometry x="1480" y="1120" width="120" height="60" as="geometry" />
        </mxCell>
        <mxCell id="0bQcgtlpd2lwGw6iiIkm-122" value="" style="edgeStyle=orthogonalEdgeStyle;curved=1;orthogonalLoop=1;jettySize=auto;html=1;strokeColor=#0F0F0F;" edge="1" parent="1" source="0bQcgtlpd2lwGw6iiIkm-117" target="0bQcgtlpd2lwGw6iiIkm-121">
          <mxGeometry relative="1" as="geometry" />
        </mxCell>
        <mxCell id="0bQcgtlpd2lwGw6iiIkm-124" value="是" style="edgeLabel;html=1;align=center;verticalAlign=middle;resizable=0;points=[];" vertex="1" connectable="0" parent="0bQcgtlpd2lwGw6iiIkm-122">
          <mxGeometry x="-0.4" y="1" relative="1" as="geometry">
            <mxPoint as="offset" />
          </mxGeometry>
        </mxCell>
        <mxCell id="0bQcgtlpd2lwGw6iiIkm-140" style="edgeStyle=orthogonalEdgeStyle;curved=1;orthogonalLoop=1;jettySize=auto;html=1;entryX=0;entryY=0.5;entryDx=0;entryDy=0;strokeColor=#0F0F0F;exitX=0;exitY=0.5;exitDx=0;exitDy=0;" edge="1" parent="1" source="0bQcgtlpd2lwGw6iiIkm-117" target="0bQcgtlpd2lwGw6iiIkm-125">
          <mxGeometry relative="1" as="geometry" />
        </mxCell>
        <mxCell id="0bQcgtlpd2lwGw6iiIkm-117" value="存在子 statment" style="rhombus;whiteSpace=wrap;html=1;rounded=1;arcSize=0;fillColor=#ffe6cc;strokeColor=#d79b00;" vertex="1" parent="1">
          <mxGeometry x="1480" y="1240" width="120" height="60" as="geometry" />
        </mxCell>
        <mxCell id="0bQcgtlpd2lwGw6iiIkm-126" value="递归结束" style="edgeStyle=orthogonalEdgeStyle;curved=1;orthogonalLoop=1;jettySize=auto;html=1;strokeColor=#0F0F0F;" edge="1" parent="1" source="0bQcgtlpd2lwGw6iiIkm-121" target="0bQcgtlpd2lwGw6iiIkm-125">
          <mxGeometry relative="1" as="geometry" />
        </mxCell>
        <mxCell id="0bQcgtlpd2lwGw6iiIkm-121" value="visit 递归" style="whiteSpace=wrap;html=1;rounded=1;strokeColor=#82b366;fillColor=#d5e8d4;arcSize=0;" vertex="1" parent="1">
          <mxGeometry x="1480" y="1360" width="120" height="60" as="geometry" />
        </mxCell>
        <mxCell id="0bQcgtlpd2lwGw6iiIkm-133" value="" style="edgeStyle=orthogonalEdgeStyle;curved=1;orthogonalLoop=1;jettySize=auto;html=1;strokeColor=#0F0F0F;" edge="1" parent="1" source="0bQcgtlpd2lwGw6iiIkm-125" target="0bQcgtlpd2lwGw6iiIkm-132">
          <mxGeometry relative="1" as="geometry" />
        </mxCell>
        <mxCell id="0bQcgtlpd2lwGw6iiIkm-136" value="" style="edgeStyle=orthogonalEdgeStyle;curved=1;orthogonalLoop=1;jettySize=auto;html=1;strokeColor=#0F0F0F;" edge="1" parent="1" source="0bQcgtlpd2lwGw6iiIkm-125" target="0bQcgtlpd2lwGw6iiIkm-121">
          <mxGeometry relative="1" as="geometry" />
        </mxCell>
        <mxCell id="0bQcgtlpd2lwGw6iiIkm-125" value="leave()" style="whiteSpace=wrap;html=1;rounded=1;arcSize=0;" vertex="1" parent="1">
          <mxGeometry x="1480" y="1480" width="120" height="60" as="geometry" />
        </mxCell>
        <mxCell id="0bQcgtlpd2lwGw6iiIkm-137" style="edgeStyle=orthogonalEdgeStyle;curved=1;orthogonalLoop=1;jettySize=auto;html=1;strokeColor=#0F0F0F;entryX=0;entryY=0.5;entryDx=0;entryDy=0;" edge="1" parent="1" source="0bQcgtlpd2lwGw6iiIkm-132" target="0bQcgtlpd2lwGw6iiIkm-141">
          <mxGeometry relative="1" as="geometry">
            <mxPoint x="1720" y="1249.9999999999998" as="targetPoint" />
          </mxGeometry>
        </mxCell>
        <mxCell id="0bQcgtlpd2lwGw6iiIkm-132" value="Scope 复位" style="whiteSpace=wrap;html=1;rounded=1;arcSize=0;" vertex="1" parent="1">
          <mxGeometry x="1480" y="1600" width="120" height="60" as="geometry" />
        </mxCell>
        <mxCell id="0bQcgtlpd2lwGw6iiIkm-144" value="" style="edgeStyle=orthogonalEdgeStyle;curved=1;orthogonalLoop=1;jettySize=auto;html=1;strokeColor=#0F0F0F;" edge="1" parent="1" source="0bQcgtlpd2lwGw6iiIkm-134" target="0bQcgtlpd2lwGw6iiIkm-143">
          <mxGeometry relative="1" as="geometry" />
        </mxCell>
        <mxCell id="0bQcgtlpd2lwGw6iiIkm-134" value="visit" style="whiteSpace=wrap;html=1;rounded=1;arcSize=0;fillColor=#d5e8d4;strokeColor=#82b366;" vertex="1" parent="1">
          <mxGeometry x="1680" y="520" width="120" height="60" as="geometry" />
        </mxCell>
        <mxCell id="0bQcgtlpd2lwGw6iiIkm-142" value="" style="edgeStyle=orthogonalEdgeStyle;curved=1;orthogonalLoop=1;jettySize=auto;html=1;strokeColor=#0F0F0F;" edge="1" parent="1" source="0bQcgtlpd2lwGw6iiIkm-141" target="0bQcgtlpd2lwGw6iiIkm-134">
          <mxGeometry relative="1" as="geometry" />
        </mxCell>
        <mxCell id="0bQcgtlpd2lwGw6iiIkm-141" value="walk(Statement)&lt;br&gt;深度遍历" style="whiteSpace=wrap;html=1;rounded=1;arcSize=0;" vertex="1" parent="1">
          <mxGeometry x="1680" y="400" width="120" height="60" as="geometry" />
        </mxCell>
        <mxCell id="0bQcgtlpd2lwGw6iiIkm-146" value="" style="edgeStyle=orthogonalEdgeStyle;curved=1;orthogonalLoop=1;jettySize=auto;html=1;strokeColor=#0F0F0F;" edge="1" parent="1" source="0bQcgtlpd2lwGw6iiIkm-143" target="0bQcgtlpd2lwGw6iiIkm-145">
          <mxGeometry relative="1" as="geometry" />
        </mxCell>
        <mxCell id="0bQcgtlpd2lwGw6iiIkm-143" value="enter()" style="whiteSpace=wrap;html=1;rounded=1;arcSize=0;" vertex="1" parent="1">
          <mxGeometry x="1680" y="640" width="120" height="60" as="geometry" />
        </mxCell>
        <mxCell id="0bQcgtlpd2lwGw6iiIkm-148" value="是" style="edgeStyle=orthogonalEdgeStyle;curved=1;orthogonalLoop=1;jettySize=auto;html=1;strokeColor=#0F0F0F;" edge="1" parent="1" source="0bQcgtlpd2lwGw6iiIkm-145" target="0bQcgtlpd2lwGw6iiIkm-147">
          <mxGeometry relative="1" as="geometry" />
        </mxCell>
        <mxCell id="0bQcgtlpd2lwGw6iiIkm-159" style="edgeStyle=orthogonalEdgeStyle;curved=1;orthogonalLoop=1;jettySize=auto;html=1;entryX=0;entryY=0.5;entryDx=0;entryDy=0;strokeColor=#0F0F0F;exitX=0;exitY=0.5;exitDx=0;exitDy=0;" edge="1" parent="1" source="0bQcgtlpd2lwGw6iiIkm-145" target="0bQcgtlpd2lwGw6iiIkm-149">
          <mxGeometry relative="1" as="geometry" />
        </mxCell>
        <mxCell id="0bQcgtlpd2lwGw6iiIkm-145" value="是否存在外部变量" style="rhombus;whiteSpace=wrap;html=1;rounded=1;arcSize=0;fillColor=#ffe6cc;strokeColor=#d79b00;" vertex="1" parent="1">
          <mxGeometry x="1680" y="760" width="120" height="60" as="geometry" />
        </mxCell>
        <mxCell id="0bQcgtlpd2lwGw6iiIkm-150" value="" style="edgeStyle=orthogonalEdgeStyle;curved=1;orthogonalLoop=1;jettySize=auto;html=1;strokeColor=#0F0F0F;" edge="1" parent="1" source="0bQcgtlpd2lwGw6iiIkm-147" target="0bQcgtlpd2lwGw6iiIkm-149">
          <mxGeometry relative="1" as="geometry" />
        </mxCell>
        <mxCell id="0bQcgtlpd2lwGw6iiIkm-147" value="statement._dependsOn&lt;br&gt;记录外部变量" style="whiteSpace=wrap;html=1;rounded=1;arcSize=0;" vertex="1" parent="1">
          <mxGeometry x="1680" y="880" width="120" height="60" as="geometry" />
        </mxCell>
        <mxCell id="0bQcgtlpd2lwGw6iiIkm-154" value="" style="edgeStyle=orthogonalEdgeStyle;curved=1;orthogonalLoop=1;jettySize=auto;html=1;strokeColor=#0F0F0F;" edge="1" parent="1" source="0bQcgtlpd2lwGw6iiIkm-149" target="0bQcgtlpd2lwGw6iiIkm-152">
          <mxGeometry relative="1" as="geometry" />
        </mxCell>
        <mxCell id="0bQcgtlpd2lwGw6iiIkm-160" style="edgeStyle=orthogonalEdgeStyle;curved=1;orthogonalLoop=1;jettySize=auto;html=1;entryX=0;entryY=0.5;entryDx=0;entryDy=0;strokeColor=#0F0F0F;exitX=0;exitY=0.5;exitDx=0;exitDy=0;" edge="1" parent="1" source="0bQcgtlpd2lwGw6iiIkm-149" target="0bQcgtlpd2lwGw6iiIkm-153">
          <mxGeometry relative="1" as="geometry" />
        </mxCell>
        <mxCell id="0bQcgtlpd2lwGw6iiIkm-149" value="存在子 statment" style="rhombus;whiteSpace=wrap;html=1;rounded=1;arcSize=0;fillColor=#ffe6cc;strokeColor=#d79b00;" vertex="1" parent="1">
          <mxGeometry x="1680" y="1000" width="120" height="60" as="geometry" />
        </mxCell>
        <mxCell id="0bQcgtlpd2lwGw6iiIkm-157" value="" style="edgeStyle=orthogonalEdgeStyle;curved=1;orthogonalLoop=1;jettySize=auto;html=1;strokeColor=#0F0F0F;" edge="1" parent="1" source="0bQcgtlpd2lwGw6iiIkm-152" target="0bQcgtlpd2lwGw6iiIkm-153">
          <mxGeometry relative="1" as="geometry" />
        </mxCell>
        <mxCell id="0bQcgtlpd2lwGw6iiIkm-152" value="visit 递归" style="whiteSpace=wrap;html=1;rounded=1;strokeColor=#82b366;fillColor=#d5e8d4;arcSize=0;" vertex="1" parent="1">
          <mxGeometry x="1680" y="1120" width="120" height="60" as="geometry" />
        </mxCell>
        <mxCell id="0bQcgtlpd2lwGw6iiIkm-156" value="" style="edgeStyle=orthogonalEdgeStyle;curved=1;orthogonalLoop=1;jettySize=auto;html=1;strokeColor=#0F0F0F;" edge="1" parent="1" source="0bQcgtlpd2lwGw6iiIkm-153" target="0bQcgtlpd2lwGw6iiIkm-155">
          <mxGeometry relative="1" as="geometry" />
        </mxCell>
        <mxCell id="0bQcgtlpd2lwGw6iiIkm-153" value="leave()" style="whiteSpace=wrap;html=1;rounded=1;arcSize=0;" vertex="1" parent="1">
          <mxGeometry x="1680" y="1240" width="120" height="60" as="geometry" />
        </mxCell>
        <mxCell id="0bQcgtlpd2lwGw6iiIkm-155" value="Scope 复位" style="whiteSpace=wrap;html=1;rounded=1;arcSize=0;" vertex="1" parent="1">
          <mxGeometry x="1680" y="1360" width="120" height="60" as="geometry" />
        </mxCell>
        <mxCell id="0bQcgtlpd2lwGw6iiIkm-162" value="设置所有 &lt;br&gt;statement.&amp;nbsp;_defines&lt;br&gt;到&amp;nbsp;definitions" style="whiteSpace=wrap;html=1;rounded=1;arcSize=0;" vertex="1" parent="1">
          <mxGeometry x="1080" y="760" width="120" height="60" as="geometry" />
        </mxCell>
        <mxCell id="0bQcgtlpd2lwGw6iiIkm-165" value="new Module()" style="whiteSpace=wrap;html=1;rounded=1;arcSize=0;" vertex="1" parent="1">
          <mxGeometry x="760" y="880" width="120" height="60" as="geometry" />
        </mxCell>
      </root>
    </mxGraphModel>
  </diagram>
</mxfile>
